<svg width="222" height="284" viewBox="0 0 222 284" fill="none" xmlns="http://www.w3.org/2000/svg">
<path d="M120.327 0.00202408C139.439 0.00202408 156.669 1.63627 172.015 4.90477C187.6 8.17327 201.69 12.3237 214.256 17.356L221.431 74.6942C216.329 72.9603 211.187 71.3659 205.995 69.9111C199.149 67.9878 192.224 66.3137 185.218 64.8837C173.141 62.3726 159.559 61.112 144.472 61.112C126.614 61.112 112.285 63.374 101.473 67.9031C90.9101 72.4272 83.2371 78.8446 78.4539 87.1404C73.9299 95.1871 71.6678 104.873 71.6678 116.188V117.698C71.6678 125.745 72.8038 133.413 75.0659 140.707L33.5719 153.158C24.2646 147.373 16.3425 139.197 9.8055 128.634C3.2685 117.822 0 104.873 0 89.7811V87.8978C0 61.4907 9.8055 40.2405 29.4165 24.1421C49.0375 8.04871 79.3408 0.00202408 120.327 0.00202408Z" fill="url(#paint0_linear_9305_2408)"/>
<path d="M120.327 129.929C139.439 129.929 156.669 131.563 172.015 134.832C187.6 138.1 201.69 142.251 214.256 147.283L221.431 204.621C216.329 202.887 211.187 201.293 205.995 199.838C199.149 197.915 192.224 196.241 185.218 194.811C173.141 192.3 159.559 191.039 144.472 191.039C126.614 191.039 112.285 193.301 101.473 197.83C90.9101 202.354 83.2371 208.772 78.4539 217.068C73.9299 225.114 71.6678 234.8 71.6678 246.115V247.625C71.6678 255.672 72.8038 263.34 75.0659 270.634L33.5719 283.085C24.2646 277.301 16.3425 269.124 9.8055 258.562C3.2685 247.75 0 234.8 0 219.708V217.825C0 191.418 9.8055 170.168 29.4165 154.069C49.0375 137.976 79.3408 129.929 120.327 129.929Z" fill="url(#paint1_linear_9305_2408)"/>
<defs>
<linearGradient id="paint0_linear_9305_2408" x1="47.4065" y1="7.48107" x2="243.841" y2="319.01" gradientUnits="userSpaceOnUse">
<stop stop-color="#1B4945"/>
<stop offset="1" stop-color="#41AFA5"/>
</linearGradient>
<linearGradient id="paint1_linear_9305_2408" x1="47.4065" y1="7.48107" x2="243.841" y2="319.01" gradientUnits="userSpaceOnUse">
<stop stop-color="#1B4945"/>
<stop offset="1" stop-color="#41AFA5"/>
</linearGradient>
</defs>
</svg>
