<svg width="1080" height="284" viewBox="0 0 1080 284" fill="none" xmlns="http://www.w3.org/2000/svg">
<path d="M120.327 0.00202408C139.439 0.00202408 156.669 1.63627 172.015 4.90477C187.6 8.17327 201.69 12.3237 214.256 17.356L221.431 74.6942C216.329 72.9603 211.187 71.3659 205.995 69.9111C199.149 67.9878 192.224 66.3137 185.218 64.8837C173.141 62.3726 159.559 61.112 144.472 61.112C126.614 61.112 112.285 63.374 101.473 67.9031C90.9101 72.4272 83.2371 78.8446 78.4539 87.1404C73.9299 95.1871 71.6678 104.873 71.6678 116.188V117.698C71.6678 125.745 72.8038 133.413 75.0659 140.707L33.5719 153.158C24.2646 147.373 16.3425 139.197 9.8055 128.634C3.2685 117.822 0 104.873 0 89.7811V87.8978C0 61.4907 9.8055 40.2405 29.4165 24.1421C49.0375 8.04871 79.3408 0.00202408 120.327 0.00202408Z" fill="url(#paint0_linear_9305_2283)"/>
<path d="M120.327 129.929C139.439 129.929 156.669 131.563 172.015 134.832C187.6 138.1 201.69 142.251 214.256 147.283L221.431 204.621C216.329 202.887 211.187 201.293 205.995 199.838C199.149 197.915 192.224 196.241 185.218 194.811C173.141 192.3 159.559 191.039 144.472 191.039C126.614 191.039 112.285 193.301 101.473 197.83C90.9101 202.354 83.2371 208.772 78.4539 217.068C73.9299 225.114 71.6678 234.8 71.6678 246.115V247.625C71.6678 255.672 72.8038 263.34 75.0659 270.634L33.5719 283.085C24.2646 277.301 16.3425 269.124 9.8055 258.562C3.2685 247.75 0 234.8 0 219.708V217.825C0 191.418 9.8055 170.168 29.4165 154.069C49.0375 137.976 79.3408 129.929 120.327 129.929Z" fill="url(#paint1_linear_9305_2283)"/>
<path d="M300.175 236.005V49.9902H338.31V236.005H300.175ZM322.008 166.723V134.701H418.363V166.723H322.008ZM311.237 82.1572V49.9902H420.547V82.1572H311.237Z" fill="black"/>
<path d="M436.171 236.005V43.5859H473.578V236.005H436.171Z" fill="black"/>
<path d="M561.837 239.499C537.384 239.499 519.19 233.871 507.255 222.615C495.319 211.359 489.352 195.057 489.352 173.709V155.079C489.352 133.925 494.931 117.672 506.09 106.319C517.249 94.9657 533.454 89.2892 554.704 89.2892C569.066 89.2892 581.049 91.8121 590.656 96.8579C600.262 101.904 607.443 109.084 612.197 118.4C617.049 127.618 619.475 138.68 619.475 151.585V156.68C619.475 160.173 619.281 163.763 618.893 167.451C618.602 171.041 618.165 174.437 617.583 177.639H583.815C584.106 172.302 584.251 167.256 584.251 162.502C584.349 157.65 584.397 153.283 584.397 149.402C584.397 142.707 583.33 137.03 581.195 132.373C579.06 127.618 575.809 124.028 571.443 121.602C567.076 119.176 561.497 117.963 554.704 117.963C544.71 117.963 537.335 120.728 532.581 126.259C527.826 131.79 525.449 139.65 525.449 149.839V163.084L525.594 167.305V178.512C525.594 182.976 526.273 187.1 527.632 190.884C529.087 194.669 531.465 197.968 534.764 200.782C538.063 203.499 542.43 205.634 547.864 207.186C553.394 208.739 560.284 209.515 568.532 209.515C577.459 209.515 585.95 208.545 594.003 206.604C602.154 204.566 609.869 201.849 617.146 198.453L613.944 227.855C607.443 231.445 599.777 234.259 590.947 236.297C582.214 238.431 572.51 239.499 561.837 239.499ZM509.147 177.639V152.895H610.014V177.639H509.147Z" fill="black"/>
<path d="M618.131 236.005L661.36 156.534V166.868L619.15 93.2191H659.468L687.705 145.909H690.179L718.125 93.2191H758.297L716.233 166.868V156.534L759.462 236.005H719.144L690.179 180.259H687.705L658.449 236.005H618.131Z" fill="black"/>
<path d="M877.686 205.294V236.005H762.409V208.205L831.983 123.785H762.991V93.2191H876.958V121.019L807.239 205.294H877.686Z" fill="black"/>
<path d="M972.595 236.005L973.905 201.073L972.886 197.871V153.186L972.741 146.782C972.741 137.467 970.169 130.626 965.026 126.259C959.981 121.893 951.684 119.71 940.137 119.71C930.337 119.71 921.118 121.02 912.482 123.639C903.943 126.162 896.035 129.122 888.757 132.518L891.959 102.826C896.229 100.594 901.081 98.5075 906.515 96.5668C912.046 94.5291 918.207 92.8795 925 91.618C931.792 90.3566 939.118 89.7259 946.978 89.7259C958.622 89.7259 968.471 91.1329 976.525 93.9469C984.579 96.6638 990.983 100.594 995.738 105.737C1000.59 110.879 1004.08 117.041 1006.22 124.222C1008.35 131.305 1009.42 139.165 1009.42 147.801V236.005H972.595ZM925.873 239.353C911.706 239.353 900.887 235.811 893.415 228.728C886.04 221.644 882.353 211.553 882.353 198.453V194.378C882.353 180.502 886.622 170.265 895.162 163.666C903.701 156.971 917.237 152.362 935.77 149.839L976.234 144.308L978.417 168.324L941.156 173.709C933.005 174.777 927.183 176.717 923.69 179.531C920.293 182.345 918.595 186.469 918.595 191.903V193.359C918.595 198.696 920.245 202.868 923.544 205.876C926.94 208.787 932.229 210.243 939.409 210.243C945.814 210.243 951.296 209.224 955.857 207.186C960.417 205.148 964.153 202.48 967.064 199.181C970.072 195.785 972.207 192 973.468 187.828L978.708 206.313H972.304C970.751 212.426 968.229 218.006 964.735 223.051C961.339 228 956.536 231.979 950.326 234.987C944.115 237.898 935.964 239.353 925.873 239.353Z" fill="black"/>
<path d="M1026.22 94.2656V59.6212H1031.82V94.2656H1026.22ZM1015.74 63.3281V58.6457H1042.27V63.3281H1015.74Z" fill="black"/>
<path d="M1044.74 94.2656L1046.02 58.6457H1054.53L1062.19 83.0612H1062.55L1070.22 58.6457H1078.72L1080 94.2656H1074.57L1074.15 80.0232L1073.76 64.5266H1073.31L1065.17 90.1406H1059.57L1051.43 64.5266H1050.99L1050.18 94.2656H1044.74Z" fill="black"/>
<defs>
<linearGradient id="paint0_linear_9305_2283" x1="47.4065" y1="7.48107" x2="243.841" y2="319.01" gradientUnits="userSpaceOnUse">
<stop stop-color="#1B4945"/>
<stop offset="1" stop-color="#41AFA5"/>
</linearGradient>
<linearGradient id="paint1_linear_9305_2283" x1="47.4065" y1="7.48107" x2="243.841" y2="319.01" gradientUnits="userSpaceOnUse">
<stop stop-color="#1B4945"/>
<stop offset="1" stop-color="#41AFA5"/>
</linearGradient>
</defs>
</svg>
